<svg id="Layer_1" data-name="Layer 1" xmlns="http://www.w3.org/2000/svg" xmlns:xlink="http://www.w3.org/1999/xlink" viewBox="0 0 900 900"><defs><style>.cls-1,.cls-2{fill:none;}.cls-2{stroke:#231f20;stroke-linecap:round;stroke-linejoin:round;stroke-width:0.65px;}.cls-3{fill:#231f20;}.cls-4{clip-path:url(#clip-path);}.cls-5{fill:#fff;}.cls-6{fill:#f05646;}</style><clipPath id="clip-path"><rect class="cls-1" x="3" y="146.99" width="894" height="606.02"/></clipPath></defs><title>ScoreCard_Icon</title><path class="cls-2" d="M770.35,480.08h0m-660.26,0h0"/><path class="cls-2" d="M770.35,340.31h0m-660.26,0h0"/><path class="cls-3" d="M752.37,480a2.52,2.52,0,0,1,2.57-2.48h0a2.45,2.45,0,0,1,2.48,2.48h0a2.48,2.48,0,0,1-2.48,2.57h0A2.54,2.54,0,0,1,752.37,480ZM737,480a2.51,2.51,0,0,1,2.56-2.48h0a2.52,2.52,0,0,1,2.57,2.48h0a2.54,2.54,0,0,1-2.57,2.57h0A2.54,2.54,0,0,1,737,480Zm-15.3,0a2.45,2.45,0,0,1,2.48-2.48h0a2.52,2.52,0,0,1,2.57,2.48h0a2.54,2.54,0,0,1-2.57,2.57h0A2.48,2.48,0,0,1,721.7,480Zm-15.38,0a2.45,2.45,0,0,1,2.49-2.48h0a2.51,2.51,0,0,1,2.56,2.48h0a2.54,2.54,0,0,1-2.56,2.57h0A2.48,2.48,0,0,1,706.32,480Zm-15.38,0a2.52,2.52,0,0,1,2.57-2.48h0a2.51,2.51,0,0,1,2.56,2.48h0a2.54,2.54,0,0,1-2.56,2.57h0A2.54,2.54,0,0,1,690.94,480Zm-15.37,0a2.51,2.51,0,0,1,2.56-2.48h0A2.52,2.52,0,0,1,680.7,480h0a2.54,2.54,0,0,1-2.57,2.57h0A2.54,2.54,0,0,1,675.57,480Zm-15.3,0a2.45,2.45,0,0,1,2.48-2.48h0a2.51,2.51,0,0,1,2.57,2.48h0a2.54,2.54,0,0,1-2.57,2.57h0A2.48,2.48,0,0,1,660.27,480Zm-15.38,0a2.52,2.52,0,0,1,2.57-2.48h0A2.46,2.46,0,0,1,650,480h0a2.48,2.48,0,0,1-2.49,2.57h0A2.54,2.54,0,0,1,644.89,480Zm-15.37,0a2.51,2.51,0,0,1,2.56-2.48h0a2.51,2.51,0,0,1,2.56,2.48h0a2.54,2.54,0,0,1-2.56,2.57h0A2.54,2.54,0,0,1,629.52,480Zm-15.3,0a2.45,2.45,0,0,1,2.49-2.48h0a2.52,2.52,0,0,1,2.56,2.48h0a2.54,2.54,0,0,1-2.56,2.57h0A2.48,2.48,0,0,1,614.22,480Zm-15.37,0a2.51,2.51,0,0,1,2.56-2.48h0a2.49,2.49,0,0,1,2.48,2.48h0a2.52,2.52,0,0,1-2.48,2.57h0A2.54,2.54,0,0,1,598.85,480Zm-15.38,0a2.51,2.51,0,0,1,2.56-2.48h0a2.52,2.52,0,0,1,2.56,2.48h0A2.54,2.54,0,0,1,586,482.6h0A2.54,2.54,0,0,1,583.47,480Zm-15.38,0a2.51,2.51,0,0,1,2.57-2.48h0a2.52,2.52,0,0,1,2.56,2.48h0a2.54,2.54,0,0,1-2.56,2.57h0A2.54,2.54,0,0,1,568.09,480Zm-15.3,0a2.47,2.47,0,0,1,2.56-2.48h0a2.44,2.44,0,0,1,2.49,2.48h0a2.47,2.47,0,0,1-2.49,2.57h0A2.49,2.49,0,0,1,552.79,480Zm-15.37,0a2.51,2.51,0,0,1,2.56-2.48h0a2.45,2.45,0,0,1,2.49,2.48h0A2.48,2.48,0,0,1,540,482.6h0A2.54,2.54,0,0,1,537.42,480ZM522,480a2.52,2.52,0,0,1,2.56-2.48h0a2.51,2.51,0,0,1,2.56,2.48h0a2.54,2.54,0,0,1-2.56,2.57h0A2.54,2.54,0,0,1,522,480Zm-15.3,0a2.45,2.45,0,0,1,2.49-2.48h0a2.47,2.47,0,0,1,2.56,2.48h0a2.49,2.49,0,0,1-2.56,2.57h0A2.48,2.48,0,0,1,506.74,480Zm-15.37,0a2.51,2.51,0,0,1,2.56-2.48h0a2.44,2.44,0,0,1,2.48,2.48h0a2.47,2.47,0,0,1-2.48,2.57h0A2.54,2.54,0,0,1,491.37,480ZM476,480a2.52,2.52,0,0,1,2.56-2.48h0a2.51,2.51,0,0,1,2.56,2.48h0a2.54,2.54,0,0,1-2.56,2.57h0A2.54,2.54,0,0,1,476,480Zm-15.3,0a2.45,2.45,0,0,1,2.48-2.48h0a2.51,2.51,0,0,1,2.56,2.48h0a2.54,2.54,0,0,1-2.56,2.57h0A2.48,2.48,0,0,1,460.69,480Zm-15.38,0a2.47,2.47,0,0,1,2.57-2.48h0a2.44,2.44,0,0,1,2.48,2.48h0a2.47,2.47,0,0,1-2.48,2.57h0A2.5,2.5,0,0,1,445.31,480Zm-15.37,0a2.51,2.51,0,0,1,2.56-2.48h0A2.44,2.44,0,0,1,435,480h0a2.47,2.47,0,0,1-2.48,2.57h0A2.54,2.54,0,0,1,429.94,480Zm-15.3,0a2.45,2.45,0,0,1,2.48-2.48h0a2.52,2.52,0,0,1,2.57,2.48h0a2.54,2.54,0,0,1-2.57,2.57h0A2.48,2.48,0,0,1,414.64,480Zm-15.38,0a2.52,2.52,0,0,1,2.57-2.48h0a2.45,2.45,0,0,1,2.48,2.48h0a2.48,2.48,0,0,1-2.48,2.57h0A2.54,2.54,0,0,1,399.26,480Zm-15.38,0a2.52,2.52,0,0,1,2.57-2.48h0A2.51,2.51,0,0,1,389,480h0a2.54,2.54,0,0,1-2.56,2.57h0A2.54,2.54,0,0,1,383.88,480Zm-15.37,0a2.52,2.52,0,0,1,2.56-2.48h0a2.52,2.52,0,0,1,2.57,2.48h0a2.54,2.54,0,0,1-2.57,2.57h0A2.54,2.54,0,0,1,368.51,480Zm-15.3,0a2.45,2.45,0,0,1,2.48-2.48h0a2.51,2.51,0,0,1,2.57,2.48h0a2.54,2.54,0,0,1-2.57,2.57h0A2.48,2.48,0,0,1,353.21,480Zm-15.38,0a2.52,2.52,0,0,1,2.57-2.48h0a2.46,2.46,0,0,1,2.49,2.48h0a2.48,2.48,0,0,1-2.49,2.57h0A2.54,2.54,0,0,1,337.83,480Zm-15.37,0a2.51,2.51,0,0,1,2.57-2.48h0a2.51,2.51,0,0,1,2.55,2.48h0A2.53,2.53,0,0,1,325,482.6h0A2.54,2.54,0,0,1,322.46,480Zm-15.3,0a2.47,2.47,0,0,1,2.56-2.48h0a2.5,2.5,0,0,1,2.49,2.48h0a2.53,2.53,0,0,1-2.49,2.57h0A2.49,2.49,0,0,1,307.16,480Zm-15.37,0a2.51,2.51,0,0,1,2.56-2.48h0a2.45,2.45,0,0,1,2.48,2.48h0a2.48,2.48,0,0,1-2.48,2.57h0A2.54,2.54,0,0,1,291.79,480Zm-15.38,0a2.51,2.51,0,0,1,2.56-2.48h0a2.51,2.51,0,0,1,2.56,2.48h0A2.54,2.54,0,0,1,279,482.6h0A2.54,2.54,0,0,1,276.41,480ZM261,480a2.51,2.51,0,0,1,2.57-2.48h0a2.52,2.52,0,0,1,2.56,2.48h0a2.54,2.54,0,0,1-2.56,2.57h0A2.54,2.54,0,0,1,261,480Zm-15.3,0a2.52,2.52,0,0,1,2.56-2.48h0a2.5,2.5,0,0,1,2.49,2.48h0a2.53,2.53,0,0,1-2.49,2.57h0A2.54,2.54,0,0,1,245.73,480Zm-15.37,0a2.51,2.51,0,0,1,2.56-2.48h0a2.45,2.45,0,0,1,2.49,2.48h0a2.48,2.48,0,0,1-2.49,2.57h0A2.54,2.54,0,0,1,230.36,480ZM215,480a2.51,2.51,0,0,1,2.56-2.48h0A2.51,2.51,0,0,1,220.1,480h0a2.54,2.54,0,0,1-2.56,2.57h0A2.54,2.54,0,0,1,215,480Zm-15.3,0a2.45,2.45,0,0,1,2.49-2.48h0a2.47,2.47,0,0,1,2.56,2.48h0a2.49,2.49,0,0,1-2.56,2.57h0A2.48,2.48,0,0,1,199.68,480Zm-15.37,0a2.51,2.51,0,0,1,2.56-2.48h0a2.44,2.44,0,0,1,2.48,2.48h0a2.47,2.47,0,0,1-2.48,2.57h0A2.54,2.54,0,0,1,184.31,480Zm-15.38,0a2.52,2.52,0,0,1,2.56-2.48h0a2.51,2.51,0,0,1,2.56,2.48h0a2.54,2.54,0,0,1-2.56,2.57h0A2.54,2.54,0,0,1,168.93,480Zm-15.3,0a2.45,2.45,0,0,1,2.49-2.48h0a2.51,2.51,0,0,1,2.55,2.48h0a2.53,2.53,0,0,1-2.55,2.57h0A2.48,2.48,0,0,1,153.63,480Zm-15.38,0a2.52,2.52,0,0,1,2.56-2.48h0A2.44,2.44,0,0,1,143.3,480h0a2.47,2.47,0,0,1-2.49,2.57h0A2.54,2.54,0,0,1,138.25,480Zm-15.37,0a2.51,2.51,0,0,1,2.56-2.48h0A2.52,2.52,0,0,1,128,480h0a2.54,2.54,0,0,1-2.57,2.57h0A2.54,2.54,0,0,1,122.88,480Z"/><path class="cls-3" d="M752.37,340.32a2.59,2.59,0,0,1,2.57-2.56h0a2.52,2.52,0,0,1,2.48,2.56h0a2.46,2.46,0,0,1-2.48,2.49h0A2.53,2.53,0,0,1,752.37,340.32Zm-15.37,0a2.58,2.58,0,0,1,2.56-2.56h0a2.59,2.59,0,0,1,2.57,2.56h0a2.53,2.53,0,0,1-2.57,2.49h0A2.52,2.52,0,0,1,737,340.32Zm-15.3,0a2.52,2.52,0,0,1,2.48-2.56h0a2.59,2.59,0,0,1,2.57,2.56h0a2.53,2.53,0,0,1-2.57,2.49h0A2.46,2.46,0,0,1,721.7,340.32Zm-15.38,0a2.52,2.52,0,0,1,2.49-2.56h0a2.58,2.58,0,0,1,2.56,2.56h0a2.52,2.52,0,0,1-2.56,2.49h0A2.46,2.46,0,0,1,706.32,340.32Zm-15.38,0a2.59,2.59,0,0,1,2.57-2.56h0a2.58,2.58,0,0,1,2.56,2.56h0a2.52,2.52,0,0,1-2.56,2.49h0A2.53,2.53,0,0,1,690.94,340.32Zm-15.37,0a2.58,2.58,0,0,1,2.56-2.56h0a2.59,2.59,0,0,1,2.57,2.56h0a2.53,2.53,0,0,1-2.57,2.49h0A2.52,2.52,0,0,1,675.57,340.32Zm-15.3,0a2.52,2.52,0,0,1,2.48-2.56h0a2.59,2.59,0,0,1,2.57,2.56h0a2.52,2.52,0,0,1-2.57,2.49h0A2.46,2.46,0,0,1,660.27,340.32Zm-15.38,0a2.59,2.59,0,0,1,2.57-2.56h0a2.53,2.53,0,0,1,2.49,2.56h0a2.47,2.47,0,0,1-2.49,2.49h0A2.53,2.53,0,0,1,644.89,340.32Zm-15.37,0a2.58,2.58,0,0,1,2.56-2.56h0a2.58,2.58,0,0,1,2.56,2.56h0a2.52,2.52,0,0,1-2.56,2.49h0A2.52,2.52,0,0,1,629.52,340.32Zm-15.3,0a2.52,2.52,0,0,1,2.49-2.56h0a2.59,2.59,0,0,1,2.56,2.56h0a2.52,2.52,0,0,1-2.56,2.49h0A2.46,2.46,0,0,1,614.22,340.32Zm-15.37,0a2.58,2.58,0,0,1,2.56-2.56h0a2.57,2.57,0,0,1,2.48,2.56h0a2.5,2.5,0,0,1-2.48,2.49h0A2.52,2.52,0,0,1,598.85,340.32Zm-15.38,0a2.58,2.58,0,0,1,2.56-2.56h0a2.59,2.59,0,0,1,2.56,2.56h0a2.52,2.52,0,0,1-2.56,2.49h0A2.52,2.52,0,0,1,583.47,340.32Zm-15.38,0a2.59,2.59,0,0,1,2.57-2.56h0a2.59,2.59,0,0,1,2.56,2.56h0a2.52,2.52,0,0,1-2.56,2.49h0A2.52,2.52,0,0,1,568.09,340.32Zm-15.3,0a2.54,2.54,0,0,1,2.56-2.56h0a2.52,2.52,0,0,1,2.49,2.56h0a2.45,2.45,0,0,1-2.49,2.49h0A2.48,2.48,0,0,1,552.79,340.32Zm-15.37,0a2.58,2.58,0,0,1,2.56-2.56h0a2.52,2.52,0,0,1,2.49,2.56h0a2.46,2.46,0,0,1-2.49,2.49h0A2.52,2.52,0,0,1,537.42,340.32Zm-15.38,0a2.59,2.59,0,0,1,2.56-2.56h0a2.58,2.58,0,0,1,2.56,2.56h0a2.52,2.52,0,0,1-2.56,2.49h0A2.52,2.52,0,0,1,522,340.32Zm-15.3,0a2.52,2.52,0,0,1,2.49-2.56h0a2.54,2.54,0,0,1,2.56,2.56h0a2.48,2.48,0,0,1-2.56,2.49h0A2.46,2.46,0,0,1,506.74,340.32Zm-15.37,0a2.58,2.58,0,0,1,2.56-2.56h0a2.52,2.52,0,0,1,2.48,2.56h0a2.45,2.45,0,0,1-2.48,2.49h0A2.52,2.52,0,0,1,491.37,340.32Zm-15.38,0a2.59,2.59,0,0,1,2.56-2.56h0a2.58,2.58,0,0,1,2.56,2.56h0a2.52,2.52,0,0,1-2.56,2.49h0A2.52,2.52,0,0,1,476,340.32Zm-15.3,0a2.52,2.52,0,0,1,2.48-2.56h0a2.58,2.58,0,0,1,2.56,2.56h0a2.52,2.52,0,0,1-2.56,2.49h0A2.46,2.46,0,0,1,460.69,340.32Zm-15.38,0a2.54,2.54,0,0,1,2.57-2.56h0a2.52,2.52,0,0,1,2.48,2.56h0a2.45,2.45,0,0,1-2.48,2.49h0A2.48,2.48,0,0,1,445.31,340.32Zm-15.37,0a2.58,2.58,0,0,1,2.56-2.56h0a2.52,2.52,0,0,1,2.48,2.56h0a2.45,2.45,0,0,1-2.48,2.49h0A2.52,2.52,0,0,1,429.94,340.32Zm-15.3,0a2.52,2.52,0,0,1,2.48-2.56h0a2.59,2.59,0,0,1,2.57,2.56h0a2.53,2.53,0,0,1-2.57,2.49h0A2.46,2.46,0,0,1,414.64,340.32Zm-15.38,0a2.59,2.59,0,0,1,2.57-2.56h0a2.52,2.52,0,0,1,2.48,2.56h0a2.46,2.46,0,0,1-2.48,2.49h0A2.53,2.53,0,0,1,399.26,340.32Zm-15.38,0a2.59,2.59,0,0,1,2.57-2.56h0a2.58,2.58,0,0,1,2.56,2.56h0a2.52,2.52,0,0,1-2.56,2.49h0A2.53,2.53,0,0,1,383.88,340.32Zm-15.37,0a2.59,2.59,0,0,1,2.56-2.56h0a2.59,2.59,0,0,1,2.57,2.56h0a2.53,2.53,0,0,1-2.57,2.49h0A2.52,2.52,0,0,1,368.51,340.32Zm-15.3,0a2.52,2.52,0,0,1,2.48-2.56h0a2.59,2.59,0,0,1,2.57,2.56h0a2.52,2.52,0,0,1-2.57,2.49h0A2.46,2.46,0,0,1,353.21,340.32Zm-15.38,0a2.59,2.59,0,0,1,2.57-2.56h0a2.53,2.53,0,0,1,2.49,2.56h0a2.47,2.47,0,0,1-2.49,2.49h0A2.53,2.53,0,0,1,337.83,340.32Zm-15.37,0a2.59,2.59,0,0,1,2.57-2.56h0a2.58,2.58,0,0,1,2.55,2.56h0a2.52,2.52,0,0,1-2.55,2.49h0A2.52,2.52,0,0,1,322.46,340.32Zm-15.3,0a2.54,2.54,0,0,1,2.56-2.56h0a2.58,2.58,0,0,1,2.49,2.56h0a2.51,2.51,0,0,1-2.49,2.49h0A2.48,2.48,0,0,1,307.16,340.32Zm-15.37,0a2.58,2.58,0,0,1,2.56-2.56h0a2.52,2.52,0,0,1,2.48,2.56h0a2.46,2.46,0,0,1-2.48,2.49h0A2.52,2.52,0,0,1,291.79,340.32Zm-15.38,0a2.58,2.58,0,0,1,2.56-2.56h0a2.58,2.58,0,0,1,2.56,2.56h0a2.52,2.52,0,0,1-2.56,2.49h0A2.52,2.52,0,0,1,276.41,340.32Zm-15.38,0a2.59,2.59,0,0,1,2.57-2.56h0a2.59,2.59,0,0,1,2.56,2.56h0a2.52,2.52,0,0,1-2.56,2.49h0A2.52,2.52,0,0,1,261,340.32Zm-15.3,0a2.59,2.59,0,0,1,2.56-2.56h0a2.58,2.58,0,0,1,2.49,2.56h0a2.51,2.51,0,0,1-2.49,2.49h0A2.52,2.52,0,0,1,245.73,340.32Zm-15.37,0a2.58,2.58,0,0,1,2.56-2.56h0a2.52,2.52,0,0,1,2.49,2.56h0a2.46,2.46,0,0,1-2.49,2.49h0A2.52,2.52,0,0,1,230.36,340.32Zm-15.38,0a2.58,2.58,0,0,1,2.56-2.56h0a2.58,2.58,0,0,1,2.56,2.56h0a2.52,2.52,0,0,1-2.56,2.49h0A2.52,2.52,0,0,1,215,340.32Zm-15.3,0a2.52,2.52,0,0,1,2.49-2.56h0a2.54,2.54,0,0,1,2.56,2.56h0a2.48,2.48,0,0,1-2.56,2.49h0A2.46,2.46,0,0,1,199.68,340.32Zm-15.37,0a2.58,2.58,0,0,1,2.56-2.56h0a2.52,2.52,0,0,1,2.48,2.56h0a2.45,2.45,0,0,1-2.48,2.49h0A2.52,2.52,0,0,1,184.31,340.32Zm-15.38,0a2.59,2.59,0,0,1,2.56-2.56h0a2.58,2.58,0,0,1,2.56,2.56h0a2.52,2.52,0,0,1-2.56,2.49h0A2.52,2.52,0,0,1,168.93,340.32Zm-15.3,0a2.52,2.52,0,0,1,2.49-2.56h0a2.58,2.58,0,0,1,2.55,2.56h0a2.52,2.52,0,0,1-2.55,2.49h0A2.46,2.46,0,0,1,153.63,340.32Zm-15.38,0a2.59,2.59,0,0,1,2.56-2.56h0a2.52,2.52,0,0,1,2.49,2.56h0a2.45,2.45,0,0,1-2.49,2.49h0A2.52,2.52,0,0,1,138.25,340.32Zm-15.37,0a2.58,2.58,0,0,1,2.56-2.56h0a2.59,2.59,0,0,1,2.57,2.56h0a2.53,2.53,0,0,1-2.57,2.49h0A2.52,2.52,0,0,1,122.88,340.32Z"/><path class="cls-3" d="M752.37,619.82a2.53,2.53,0,0,1,2.57-2.49h0a2.46,2.46,0,0,1,2.48,2.49h0a2.52,2.52,0,0,1-2.48,2.56h0A2.59,2.59,0,0,1,752.37,619.82Zm-15.37,0a2.52,2.52,0,0,1,2.56-2.49h0a2.53,2.53,0,0,1,2.57,2.49h0a2.59,2.59,0,0,1-2.57,2.56h0A2.58,2.58,0,0,1,737,619.82Zm-15.3,0a2.46,2.46,0,0,1,2.48-2.49h0a2.53,2.53,0,0,1,2.57,2.49h0a2.59,2.59,0,0,1-2.57,2.56h0A2.52,2.52,0,0,1,721.7,619.82Zm-15.38,0a2.46,2.46,0,0,1,2.49-2.49h0a2.52,2.52,0,0,1,2.56,2.49h0a2.58,2.58,0,0,1-2.56,2.56h0A2.52,2.52,0,0,1,706.32,619.82Zm-15.38,0a2.53,2.53,0,0,1,2.57-2.49h0a2.52,2.52,0,0,1,2.56,2.49h0a2.58,2.58,0,0,1-2.56,2.56h0A2.59,2.59,0,0,1,690.94,619.82Zm-15.37,0a2.52,2.52,0,0,1,2.56-2.49h0a2.53,2.53,0,0,1,2.57,2.49h0a2.59,2.59,0,0,1-2.57,2.56h0A2.58,2.58,0,0,1,675.57,619.82Zm-15.3,0a2.46,2.46,0,0,1,2.48-2.49h0a2.52,2.52,0,0,1,2.57,2.49h0a2.59,2.59,0,0,1-2.57,2.56h0A2.52,2.52,0,0,1,660.27,619.82Zm-15.38,0a2.53,2.53,0,0,1,2.57-2.49h0a2.47,2.47,0,0,1,2.49,2.49h0a2.53,2.53,0,0,1-2.49,2.56h0A2.59,2.59,0,0,1,644.89,619.82Zm-15.37,0a2.52,2.52,0,0,1,2.56-2.49h0a2.52,2.52,0,0,1,2.56,2.49h0a2.58,2.58,0,0,1-2.56,2.56h0A2.58,2.58,0,0,1,629.52,619.82Zm-15.3,0a2.46,2.46,0,0,1,2.49-2.49h0a2.52,2.52,0,0,1,2.56,2.49h0a2.59,2.59,0,0,1-2.56,2.56h0A2.52,2.52,0,0,1,614.22,619.82Zm-15.37,0a2.52,2.52,0,0,1,2.56-2.49h0a2.5,2.5,0,0,1,2.48,2.49h0a2.57,2.57,0,0,1-2.48,2.56h0A2.58,2.58,0,0,1,598.85,619.82Zm-15.38,0a2.52,2.52,0,0,1,2.56-2.49h0a2.52,2.52,0,0,1,2.56,2.49h0a2.59,2.59,0,0,1-2.56,2.56h0A2.58,2.58,0,0,1,583.47,619.82Zm-15.38,0a2.52,2.52,0,0,1,2.57-2.49h0a2.52,2.52,0,0,1,2.56,2.49h0a2.59,2.59,0,0,1-2.56,2.56h0A2.59,2.59,0,0,1,568.09,619.82Zm-15.3,0a2.48,2.48,0,0,1,2.56-2.49h0a2.45,2.45,0,0,1,2.49,2.49h0a2.52,2.52,0,0,1-2.49,2.56h0A2.54,2.54,0,0,1,552.79,619.82Zm-15.37,0a2.52,2.52,0,0,1,2.56-2.49h0a2.46,2.46,0,0,1,2.49,2.49h0a2.52,2.52,0,0,1-2.49,2.56h0A2.58,2.58,0,0,1,537.42,619.82Zm-15.38,0a2.52,2.52,0,0,1,2.56-2.49h0a2.52,2.52,0,0,1,2.56,2.49h0a2.58,2.58,0,0,1-2.56,2.56h0A2.59,2.59,0,0,1,522,619.82Zm-15.3,0a2.46,2.46,0,0,1,2.49-2.49h0a2.48,2.48,0,0,1,2.56,2.49h0a2.54,2.54,0,0,1-2.56,2.56h0A2.52,2.52,0,0,1,506.74,619.82Zm-15.37,0a2.52,2.52,0,0,1,2.56-2.49h0a2.45,2.45,0,0,1,2.48,2.49h0a2.52,2.52,0,0,1-2.48,2.56h0A2.58,2.58,0,0,1,491.37,619.82Zm-15.38,0a2.52,2.52,0,0,1,2.56-2.49h0a2.52,2.52,0,0,1,2.56,2.49h0a2.58,2.58,0,0,1-2.56,2.56h0A2.59,2.59,0,0,1,476,619.82Zm-15.3,0a2.46,2.46,0,0,1,2.48-2.49h0a2.52,2.52,0,0,1,2.56,2.49h0a2.58,2.58,0,0,1-2.56,2.56h0A2.52,2.52,0,0,1,460.69,619.82Zm-15.38,0a2.48,2.48,0,0,1,2.57-2.49h0a2.45,2.45,0,0,1,2.48,2.49h0a2.52,2.52,0,0,1-2.48,2.56h0A2.54,2.54,0,0,1,445.31,619.82Zm-15.37,0a2.52,2.52,0,0,1,2.56-2.49h0a2.45,2.45,0,0,1,2.48,2.49h0a2.52,2.52,0,0,1-2.48,2.56h0A2.58,2.58,0,0,1,429.94,619.82Zm-15.3,0a2.46,2.46,0,0,1,2.48-2.49h0a2.53,2.53,0,0,1,2.57,2.49h0a2.59,2.59,0,0,1-2.57,2.56h0A2.52,2.52,0,0,1,414.64,619.82Zm-15.38,0a2.53,2.53,0,0,1,2.57-2.49h0a2.46,2.46,0,0,1,2.48,2.49h0a2.52,2.52,0,0,1-2.48,2.56h0A2.59,2.59,0,0,1,399.26,619.82Zm-15.38,0a2.53,2.53,0,0,1,2.57-2.49h0a2.52,2.52,0,0,1,2.56,2.49h0a2.58,2.58,0,0,1-2.56,2.56h0A2.59,2.59,0,0,1,383.88,619.82Zm-15.37,0a2.52,2.52,0,0,1,2.56-2.49h0a2.53,2.53,0,0,1,2.57,2.49h0a2.59,2.59,0,0,1-2.57,2.56h0A2.59,2.59,0,0,1,368.51,619.82Zm-15.3,0a2.46,2.46,0,0,1,2.48-2.49h0a2.52,2.52,0,0,1,2.57,2.49h0a2.59,2.59,0,0,1-2.57,2.56h0A2.52,2.52,0,0,1,353.21,619.82Zm-15.38,0a2.53,2.53,0,0,1,2.57-2.49h0a2.47,2.47,0,0,1,2.49,2.49h0a2.53,2.53,0,0,1-2.49,2.56h0A2.59,2.59,0,0,1,337.83,619.82Zm-15.37,0a2.52,2.52,0,0,1,2.57-2.49h0a2.52,2.52,0,0,1,2.55,2.49h0a2.58,2.58,0,0,1-2.55,2.56h0A2.59,2.59,0,0,1,322.46,619.82Zm-15.3,0a2.48,2.48,0,0,1,2.56-2.49h0a2.51,2.51,0,0,1,2.49,2.49h0a2.58,2.58,0,0,1-2.49,2.56h0A2.54,2.54,0,0,1,307.16,619.82Zm-15.37,0a2.52,2.52,0,0,1,2.56-2.49h0a2.46,2.46,0,0,1,2.48,2.49h0a2.52,2.52,0,0,1-2.48,2.56h0A2.58,2.58,0,0,1,291.79,619.82Zm-15.38,0a2.52,2.52,0,0,1,2.56-2.49h0a2.52,2.52,0,0,1,2.56,2.49h0a2.58,2.58,0,0,1-2.56,2.56h0A2.58,2.58,0,0,1,276.41,619.82Zm-15.38,0a2.52,2.52,0,0,1,2.57-2.49h0a2.52,2.52,0,0,1,2.56,2.49h0a2.59,2.59,0,0,1-2.56,2.56h0A2.59,2.59,0,0,1,261,619.82Zm-15.3,0a2.52,2.52,0,0,1,2.56-2.49h0a2.51,2.51,0,0,1,2.49,2.49h0a2.58,2.58,0,0,1-2.49,2.56h0A2.59,2.59,0,0,1,245.73,619.82Zm-15.37,0a2.52,2.52,0,0,1,2.56-2.49h0a2.46,2.46,0,0,1,2.49,2.49h0a2.52,2.52,0,0,1-2.49,2.56h0A2.58,2.58,0,0,1,230.36,619.82Zm-15.38,0a2.52,2.52,0,0,1,2.56-2.49h0a2.52,2.52,0,0,1,2.56,2.49h0a2.58,2.58,0,0,1-2.56,2.56h0A2.58,2.58,0,0,1,215,619.82Zm-15.3,0a2.46,2.46,0,0,1,2.49-2.49h0a2.48,2.48,0,0,1,2.56,2.49h0a2.54,2.54,0,0,1-2.56,2.56h0A2.52,2.52,0,0,1,199.68,619.82Zm-15.37,0a2.52,2.52,0,0,1,2.56-2.49h0a2.45,2.45,0,0,1,2.48,2.49h0a2.52,2.52,0,0,1-2.48,2.56h0A2.58,2.58,0,0,1,184.31,619.82Zm-15.38,0a2.52,2.52,0,0,1,2.56-2.49h0a2.52,2.52,0,0,1,2.56,2.49h0a2.58,2.58,0,0,1-2.56,2.56h0A2.59,2.59,0,0,1,168.93,619.82Zm-15.3,0a2.46,2.46,0,0,1,2.49-2.49h0a2.52,2.52,0,0,1,2.55,2.49h0a2.58,2.58,0,0,1-2.55,2.56h0A2.52,2.52,0,0,1,153.63,619.82Zm-15.38,0a2.52,2.52,0,0,1,2.56-2.49h0a2.45,2.45,0,0,1,2.49,2.49h0a2.52,2.52,0,0,1-2.49,2.56h0A2.59,2.59,0,0,1,138.25,619.82Zm-15.37,0a2.52,2.52,0,0,1,2.56-2.49h0a2.53,2.53,0,0,1,2.57,2.49h0a2.59,2.59,0,0,1-2.57,2.56h0A2.58,2.58,0,0,1,122.88,619.82Z"/><path class="cls-2" d="M770.35,619.84h0m-660.26,0h0"/><g class="cls-4"><path class="cls-5" d="M119.78,511.23a31.45,31.45,0,1,0-31.45-31.45,31.45,31.45,0,0,0,31.45,31.45"/><path class="cls-3" d="M119.78,513.93a34.15,34.15,0,1,1,34.15-34.15A34.19,34.19,0,0,1,119.78,513.93Zm0-62.9a28.75,28.75,0,1,0,28.75,28.75A28.79,28.79,0,0,0,119.78,451Z"/><path class="cls-5" d="M769.22,511.23a31.45,31.45,0,1,0-31.46-31.45,31.45,31.45,0,0,0,31.46,31.45"/><path class="cls-3" d="M769.22,513.93a34.15,34.15,0,1,1,34.15-34.15A34.19,34.19,0,0,1,769.22,513.93Zm0-62.9A28.75,28.75,0,1,0,798,479.78,28.79,28.79,0,0,0,769.22,451Z"/><path class="cls-5" d="M606.86,511.23a31.45,31.45,0,1,0-31.46-31.45,31.45,31.45,0,0,0,31.46,31.45"/><path class="cls-3" d="M606.85,513.93A34.15,34.15,0,1,1,641,479.78,34.19,34.19,0,0,1,606.85,513.93Zm0-62.9a28.75,28.75,0,1,0,28.75,28.75A28.79,28.79,0,0,0,606.85,451Z"/><path class="cls-5" d="M444.5,511.23A31.45,31.45,0,1,0,413,479.78a31.45,31.45,0,0,0,31.46,31.45"/><path class="cls-3" d="M444.49,513.93a34.15,34.15,0,1,1,34.16-34.15A34.19,34.19,0,0,1,444.49,513.93Zm0-62.9a28.75,28.75,0,1,0,28.76,28.75A28.79,28.79,0,0,0,444.49,451Z"/><path class="cls-5" d="M282.14,511.23a31.45,31.45,0,1,0-31.45-31.45,31.45,31.45,0,0,0,31.45,31.45"/><path class="cls-3" d="M282.14,513.93a34.15,34.15,0,1,1,34.15-34.15A34.19,34.19,0,0,1,282.14,513.93Zm0-62.9a28.75,28.75,0,1,0,28.75,28.75A28.79,28.79,0,0,0,282.14,451Z"/><path class="cls-5" d="M119.78,371.47A31.45,31.45,0,1,0,88.33,340a31.45,31.45,0,0,0,31.45,31.45"/><path class="cls-3" d="M119.78,374.17A34.15,34.15,0,1,1,153.93,340,34.19,34.19,0,0,1,119.78,374.17Zm0-62.9A28.75,28.75,0,1,0,148.53,340,28.78,28.78,0,0,0,119.78,311.27Z"/><path class="cls-5" d="M769.22,371.47A31.45,31.45,0,1,0,737.76,340a31.45,31.45,0,0,0,31.46,31.45"/><path class="cls-3" d="M769.22,374.17A34.15,34.15,0,1,1,803.37,340,34.19,34.19,0,0,1,769.22,374.17Zm0-62.9A28.75,28.75,0,1,0,798,340,28.78,28.78,0,0,0,769.22,311.27Z"/><path class="cls-5" d="M606.86,371.47A31.45,31.45,0,1,0,575.4,340a31.45,31.45,0,0,0,31.46,31.45"/><path class="cls-3" d="M606.85,374.17A34.15,34.15,0,1,1,641,340,34.19,34.19,0,0,1,606.85,374.17Zm0-62.9A28.75,28.75,0,1,0,635.6,340,28.78,28.78,0,0,0,606.85,311.27Z"/><path class="cls-5" d="M444.5,371.47A31.45,31.45,0,1,0,413,340a31.45,31.45,0,0,0,31.46,31.45"/><path class="cls-3" d="M444.49,374.17A34.15,34.15,0,1,1,478.65,340,34.19,34.19,0,0,1,444.49,374.17Zm0-62.9A28.75,28.75,0,1,0,473.25,340,28.78,28.78,0,0,0,444.49,311.27Z"/><path class="cls-5" d="M282.14,371.47A31.45,31.45,0,1,0,250.69,340a31.45,31.45,0,0,0,31.45,31.45"/><path class="cls-3" d="M282.14,374.17A34.15,34.15,0,1,1,316.29,340,34.19,34.19,0,0,1,282.14,374.17Zm0-62.9A28.75,28.75,0,1,0,310.89,340,28.78,28.78,0,0,0,282.14,311.27Z"/><path class="cls-5" d="M119.78,651a31.46,31.46,0,1,0-31.45-31.45A31.45,31.45,0,0,0,119.78,651"/><path class="cls-3" d="M119.78,653.7a34.15,34.15,0,1,1,34.15-34.15A34.19,34.19,0,0,1,119.78,653.7Zm0-62.91a28.76,28.76,0,1,0,28.75,28.76A28.79,28.79,0,0,0,119.78,590.79Z"/><path class="cls-5" d="M769.22,651a31.46,31.46,0,1,0-31.46-31.45A31.45,31.45,0,0,0,769.22,651"/><path class="cls-3" d="M769.22,653.7a34.15,34.15,0,1,1,34.15-34.15A34.19,34.19,0,0,1,769.22,653.7Zm0-62.91A28.76,28.76,0,1,0,798,619.55,28.79,28.79,0,0,0,769.22,590.79Z"/><path class="cls-5" d="M606.86,651a31.46,31.46,0,1,0-31.46-31.45A31.45,31.45,0,0,0,606.86,651"/><path class="cls-3" d="M606.85,653.7A34.15,34.15,0,1,1,641,619.55,34.19,34.19,0,0,1,606.85,653.7Zm0-62.91a28.76,28.76,0,1,0,28.75,28.76A28.79,28.79,0,0,0,606.85,590.79Z"/><path class="cls-5" d="M444.5,651A31.46,31.46,0,1,0,413,619.55,31.45,31.45,0,0,0,444.5,651"/><path class="cls-3" d="M444.49,653.7a34.15,34.15,0,1,1,34.16-34.15A34.19,34.19,0,0,1,444.49,653.7Zm0-62.91a28.76,28.76,0,1,0,28.76,28.76A28.79,28.79,0,0,0,444.49,590.79Z"/><path class="cls-5" d="M282.14,651a31.46,31.46,0,1,0-31.45-31.45A31.45,31.45,0,0,0,282.14,651"/><path class="cls-3" d="M282.14,653.7a34.15,34.15,0,1,1,34.15-34.15A34.19,34.19,0,0,1,282.14,653.7Zm0-62.91a28.76,28.76,0,1,0,28.75,28.76A28.79,28.79,0,0,0,282.14,590.79Z"/><path class="cls-6" d="M316.68,520.51a6.75,6.75,0,0,1-5.18-2.41q-2.79-3.32-5.53-6.65c-2.82-3.41-5.63-6.82-8.53-10.16-10.57-12.16-21.8-22.85-33.69-34.17L255.22,459c-6.1-5.32-10.45-9.75-11.9-14a6.77,6.77,0,0,1,12.81-4.38c.31.66,1.71,2.74,8,8.23.59.52,1,.91,1.26,1.13l7.69,7.35c11.6,11,23.6,22.45,34.59,35.1,3,3.43,5.86,6.92,8.75,10.42,1.8,2.18,3.61,4.37,5.44,6.54a6.77,6.77,0,0,1-5.18,11.14Z"/><path class="cls-6" d="M641.88,380.75a6.75,6.75,0,0,1-5.18-2.41q-2.79-3.31-5.53-6.65c-2.82-3.41-5.63-6.82-8.53-10.16-10.58-12.18-21.82-22.88-33.73-34.21l-8.49-8.05c-6.1-5.32-10.45-9.75-11.89-14a6.76,6.76,0,0,1,12.8-4.38c.32.66,1.71,2.74,8,8.23l1.26,1.12,7.66,7.32c11.61,11.05,23.61,22.47,34.62,35.13,3,3.44,5.86,6.93,8.75,10.42,1.8,2.19,3.61,4.38,5.44,6.55a6.78,6.78,0,0,1-5.18,11.14Z"/><path class="cls-6" d="M797.09,660.27a6.74,6.74,0,0,1-5.18-2.41c-1.82-2.17-3.62-4.35-5.42-6.52-2.85-3.45-5.69-6.9-8.63-10.29-10.6-12.2-21.87-22.92-33.8-34.26l-8.46-8c-6.08-5.32-10.42-9.74-11.86-14a6.77,6.77,0,0,1,12.81-4.38c.37.8,1.91,2.92,8,8.21.61.54,1.06.94,1.29,1.16L753.4,597c11.63,11.07,23.66,22.51,34.68,35.2,3,3.47,5.93,7,8.85,10.55,1.78,2.14,3.55,4.29,5.34,6.42a6.77,6.77,0,0,1-5.18,11.13Z"/><path class="cls-6" d="M257.56,519.11a7.08,7.08,0,0,1-1.37-.14,6.79,6.79,0,0,1-5.28-8c1.05-5.21,5.24-9.13,8.6-12.29.82-.77,1.59-1.49,2.18-2.13,1.79-2,3.76-3.86,5.75-5.74a56.21,56.21,0,0,0,7.59-8.14c2.33-3.36,4.51-6.88,6.68-10.39,1.29-2.07,2.57-4.14,3.87-6.17,3.19-5,6.77-9.63,10.22-14.12,1.64-2.14,3.28-4.27,4.87-6.43,3.18-4.31,6.14-7.53,11.08-10.33A6.77,6.77,0,1,1,318.42,447c-2.9,1.65-4.52,3.44-6.85,6.58-1.64,2.23-3.34,4.44-5,6.64-3.43,4.47-6.68,8.69-9.56,13.19-1.27,2-2.52,4-3.76,6-2.3,3.71-4.6,7.43-7.07,11a67,67,0,0,1-9.4,10.24c-1.73,1.65-3.46,3.28-5,5-.8.88-1.82,1.86-2.93,2.9-1.38,1.29-4.24,4-4.61,5.17A6.74,6.74,0,0,1,257.56,519.11Z"/><path class="cls-6" d="M582.76,379.35a7,7,0,0,1-1.36-.14,6.79,6.79,0,0,1-5.29-8c1-5.21,5.24-9.14,8.6-12.29.82-.77,1.59-1.49,2.18-2.13,1.79-2,3.77-3.86,5.75-5.74a56.21,56.21,0,0,0,7.59-8.14c2.32-3.37,4.51-6.89,6.68-10.41,1.29-2.07,2.57-4.12,3.87-6.15,3.21-5,6.8-9.68,10.27-14.2,1.62-2.1,3.25-4.22,4.83-6.36,3.16-4.29,6.11-7.51,11.06-10.32a6.77,6.77,0,1,1,6.67,11.79c-2.62,1.48-4.21,3-6.83,6.57-1.64,2.22-3.31,4.4-5,6.58-3.45,4.49-6.71,8.73-9.61,13.25-1.27,2-2.51,4-3.75,6-2.3,3.71-4.61,7.43-7.08,11A67,67,0,0,1,602,360.87c-1.74,1.64-3.47,3.28-5.05,5-.79.88-1.82,1.86-2.93,2.9-1.38,1.29-4.23,4-4.61,5.16A6.74,6.74,0,0,1,582.76,379.35Z"/><path class="cls-6" d="M738,658.87a6.5,6.5,0,0,1-1.37-.14,6.8,6.8,0,0,1-5.27-8c1.07-5.21,5.26-9.14,8.62-12.3.81-.76,1.59-1.47,2.17-2.12,1.79-2,3.77-3.86,5.77-5.75a55.86,55.86,0,0,0,7.56-8.12c2.32-3.35,4.51-6.87,6.68-10.38,1.29-2.07,2.57-4.14,3.88-6.18,3.19-5,6.77-9.64,10.23-14.15,1.63-2.12,3.27-4.24,4.85-6.4,3.2-4.31,6.15-7.53,11.08-10.32a6.77,6.77,0,1,1,6.67,11.79c-2.9,1.64-4.52,3.42-6.85,6.57-1.64,2.22-3.32,4.42-5,6.61-3.44,4.48-6.68,8.71-9.57,13.22-1.28,2-2.52,4-3.77,6-2.3,3.7-4.6,7.41-7.06,11a66.4,66.4,0,0,1-9.38,10.24c-1.74,1.65-3.48,3.29-5.05,5-.81.89-1.83,1.85-2.93,2.89-1.38,1.29-4.26,4-4.63,5.19A6.75,6.75,0,0,1,738,658.87Z"/><path class="cls-3" d="M897,753H3V147H897ZM14.65,741.37h870.7V158.65H14.65Z"/></g><rect class="cls-3" x="86.43" y="199.61" width="314.05" height="48.55"/></svg>